# xmcd
#
# Track frame offsets:
#	150
#	13175
#	24118
#	40788
#	51753
#	68143
#
# Disc length: 1076 seconds
#
# Revision: 1
# Processed by: cddbd v1.5.2PL0 Copyright (c) Steve Scherf et al.
# Submitted via: audiograbber 1.83.01
#
DISCID=41043206
DTITLE=Santa Fé - Oldies, Country, Instrumentals
DYEAR=1900
DGENRE=Country
TTITLE0=Oh, lonesome me
TTITLE1=King of the road
TTITLE2=Livin´ on love
TTITLE3=That´ll be the day
TTITLE4=Have you ever seen the rain
TTITLE5=Don´t rock the jukebox
EXTD=
EXTT0=
EXTT1=
EXTT2=
EXTT3=
EXTT4=
EXTT5=
PLAYORDER=
